<svg xmlns="http://www.w3.org/2000/svg" width="90" height="90" viewBox="0 0 90 90"><path fill="#0067AB" d="M71.988 64.792c-5.966-3.164-10.542-4.938-14.615-5.618l.422-.58c.2-.2.3-.5.2-.8l-.937-3.747c2.478-3.502 3.935-7.881 3.935-12.046v-3.998h3.999c.6 0 .999-.4.999-.999 0-.6-.4-1-.999-1h-2v-.999c0-7.897-5.198-14.594-12.995-16.793v-.2c0-1.6-1.299-2.999-2.999-2.999H43c-1.599 0-2.999 1.299-2.999 2.999v.2c-7.797 2.199-12.995 8.896-12.995 16.793v1h-2c-.6 0-1 .4-1 .999 0 .6.4 1 1 1h3.998v3.998c0 4.165 1.458 8.544 3.935 12.046l-.937 3.747c0 .2 0 .6.2.8l.422.58c-4.074.68-8.65 2.454-14.615 5.618-1.899.899-2.999 2.799-2.999 4.898v4.298c0 .6.4.999 1 .999h57.975c.6 0 1-.4 1-.999V69.69c.002-2-1.197-3.899-2.997-4.898zm-27.587-.926l.605-1.361 1.494 3.287.977 2.198h-4.876l1.8-4.124zm-2.56 6.123h6.31l.571 2.999h-7.481l.6-2.999zm13.654-13.994l.4 1.799-1.021 1.402a.896.896 0 0 0-.178.197l-4.158 5.757-1.319 1.812-2.695-6.063c3.221-.393 6.097-2.01 8.419-4.334l.077-.076.019-.019c.154-.155.306-.312.456-.475zm-1.302-33.671c.111.074.221.149.33.225 1.274.95 2.45 2.062 3.371 3.259l-4.598.9.897-4.384zm-17.489 4.384l-4.598-.9c.921-1.197 2.097-2.31 3.372-3.259.109-.076.219-.152.33-.225l.896 4.384zm-7.697 8.296c0-2.66.67-5.169 1.882-7.362l6.915 1.365h.2c.3 0 .5-.1.8-.2.3-.2.4-.6.3-.9l-1.372-6.678a16.471 16.471 0 0 1 2.272-.892v2.673c0 .599.4.999 1 .999s.999-.4.999-.999v-4.998c0-.5.4-.999 1-.999h3.998c.5 0 1 .4 1 .999v4.998c0 .6.4 1 1 1s1-.4 1-1v-2.672c.817.254 1.6.564 2.344.926L51 27.808c0 .3.1.7.3.9.2.2.4.3.7.3h.2l6.87-1.447a15.153 15.153 0 0 1 1.926 7.444v1h-31.99l.001-1.001zm1.999 2.999h27.988v3.998c0 4.359-1.495 8.232-3.74 11.176l-.058.019-.3.3a16.756 16.756 0 0 1-1.588 1.833c-2.354 2.193-5.161 3.521-7.866 3.652a1.136 1.136 0 0 0-.442-.088.954.954 0 0 0-.416.089c-1.656-.076-3.35-.601-4.957-1.499-1.627-.935-3.158-2.283-4.523-3.988l-.3-.3-.058-.019c-2.245-2.944-3.74-6.817-3.74-11.176v-3.997zm12.47 22.896l-2.695 6.063-1.319-1.812-4.158-5.757a1.887 1.887 0 0 0-.103-.094l-1.096-1.505.4-1.799c.136.146.273.288.412.428 2.346 2.4 5.272 4.075 8.559 4.476zM17.012 69.69c0-1.299.7-2.499 1.899-3.099 6.372-3.385 10.958-5.084 15.044-5.591l5.965 8.202-.757 3.787H17.012V69.69zm55.976 3.298h-22.15l-.757-3.786 6.029-8.291c4.072.615 8.74 2.312 14.979 5.58 1.199.7 1.899 1.899 1.899 3.199v3.298z"/></svg>