<svg xmlns="http://www.w3.org/2000/svg" width="90" height="90" viewBox="0 0 90 90"><path fill-rule="evenodd" clip-rule="evenodd" fill="#FFF" d="M67.727 31.801a1.003 1.003 0 0 1-.933.1l-17.448-6.925h-2.182v7.953a14.05 14.05 0 0 1 10.008 13.477v26.58a1 1 0 0 1-1 1H30.168a1 1 0 0 1-1-1v-26.58a14.052 14.052 0 0 1 9.996-13.474v-7.956h-3.266c-6.652 0-12.064 5.412-12.064 12.064v7.135a1 1 0 0 1-2 0V37.04c0-7.755 6.309-14.064 14.064-14.064h13.529l17.367-6.892a1.01 1.01 0 0 1 .932.1.99.99 0 0 1 .439.822V30.98a.986.986 0 0 1-.438.821zM31.168 46.406v25.58h24.004v-25.58c0-6.653-5.35-12.065-12.002-12.065-6.652.001-12.002 5.413-12.002 12.065zm13.997-21.43h-4v7.526a14.1 14.1 0 0 1 2.006-.16c.679 0 1.341.065 1.994.159v-7.525zm21.001-6.505l-12.761 5.065c.067.134.113.28.113.441a.962.962 0 0 1-.131.466l12.778 5.072V18.471zM41.588 65.755c-1.873-.483-3.499-1.904-4.145-3.619-.424-1.125-.634-2.9.773-4.969 3.941-5.797 2.564-8.448 2.548-8.472a1 1 0 0 1 1.269-1.447c.091.043 9.057 4.436 6.841 13.019-.236.915-.737 1.873-1.447 2.771a1 1 0 0 1-1.569-1.241c.531-.67.914-1.391 1.079-2.029 1.221-4.729-1.798-7.939-3.914-9.537-.025 1.759-.677 4.418-3.154 8.062-.742 1.091-.929 2.148-.555 3.14.48 1.272 1.773 2.129 2.771 2.387 1.199.305.839 2.275-.497 1.935z"/></svg>