<svg xmlns="http://www.w3.org/2000/svg" width="90" height="90" viewBox="0 0 90 90"><path fill-rule="evenodd" clip-rule="evenodd" fill="#FFF" d="M75.934 47.859c-.149.386-.52.641-.934.641H15a1.001 1.001 0 0 1-.669-1.744L34 29.055V19.5a1 1 0 0 1 1-1h20a1 1 0 0 1 1 1v9.555l19.669 17.702a1 1 0 0 1 .265 1.102zM54 20.5H36v8h18v-8zm.617 10H35.383l-17.777 16h54.788l-17.777-16zM49 39.501a1.5 1.5 0 1 1 0 3 1.5 1.5 0 0 1 0-3zm5 0a1.5 1.5 0 1 1 0 3 1.5 1.5 0 0 1 0-3zm5 0a1.5 1.5 0 1 1 0 3 1.5 1.5 0 0 1 0-3zM29.262 53.794a.999.999 0 1 1 1.414 1.414 4.662 4.662 0 0 0 0 6.585 6.665 6.665 0 0 1 0 9.414.997.997 0 0 1-1.414 0 1 1 0 0 1 0-1.414 4.664 4.664 0 0 0 0-6.586 6.664 6.664 0 0 1 0-9.413zm10 0a.999.999 0 1 1 1.414 1.414 4.662 4.662 0 0 0 0 6.585 6.665 6.665 0 0 1 0 9.414.997.997 0 0 1-1.414 0 .999.999 0 0 1 0-1.414 4.664 4.664 0 0 0 0-6.586 6.664 6.664 0 0 1 0-9.413zm10 0a.999.999 0 1 1 1.414 1.414 4.662 4.662 0 0 0 0 6.585 6.665 6.665 0 0 1 0 9.414.997.997 0 0 1-1.414 0 .999.999 0 0 1 0-1.414 4.664 4.664 0 0 0 0-6.586 6.664 6.664 0 0 1 0-9.413zm10 0a.999.999 0 1 1 1.414 1.414 4.662 4.662 0 0 0 0 6.585 6.665 6.665 0 0 1 0 9.414.997.997 0 0 1-1.414 0 1 1 0 0 1 0-1.414 4.664 4.664 0 0 0 0-6.586 6.664 6.664 0 0 1 0-9.413z"/></svg>