<svg xmlns="http://www.w3.org/2000/svg" width="90" height="90" viewBox="0 0 90 90"><path fill="#0067AB" d="M69 52.008c-.34 0-.673-.028-1-.075v22.075H22V51.933c-.327.047-.66.075-1 .075-3.86 0-7-3.141-7-7 0-.156.036-.309.106-.448l10-20c.17-.338.516-.553.895-.553h29.012v-7.015a1 1 0 0 1 1-1c.047 0 .087.021.133.027h7.734c.045-.006.086-.027.133-.027a1 1 0 0 1 1 1v.01c0 .006.003.011.003.017s-.003.011-.003.017v6.971H65c.379 0 .725.214.895.553l10 20c.069.139.105.292.105.448 0 3.859-3.141 7-7 7zm-43-26h-.382l-9.613 19.225A5.007 5.007 0 0 0 21 50.008c2.757 0 5-2.243 5-5v-19zm12 0H28v19c0 2.757 2.243 5 5 5s5-2.243 5-5v-19zm12 0H40v19c0 2.757 2.243 5 5 5s5-2.243 5-5v-19zm2 0v19c0 2.757 2.243 5 5 5s5-2.243 5-5v-19H52zm10.012-7.989h-6v5.989h6v-5.989zM63 48.61c-1.226 2.034-3.457 3.398-6 3.398s-4.774-1.364-6-3.398c-1.226 2.034-3.457 3.398-6 3.398s-4.774-1.364-6-3.398c-1.226 2.034-3.457 3.398-6 3.398s-4.774-1.364-6-3.398a7.046 7.046 0 0 1-3 2.707v20.691h42V51.317a7.034 7.034 0 0 1-3-2.707zm1.382-22.602H64v19c0 2.757 2.243 5 5 5a5.006 5.006 0 0 0 4.995-4.775l-9.613-19.225zm-5.397 39.988h-28a1 1 0 0 1 0-2h28a1 1 0 0 1 0 2z"/></svg>