<svg xmlns="http://www.w3.org/2000/svg" width="151.811" height="63.88" viewBox="0 0 151.811 63.88"><defs><style>.cls-1{fill:#eef4f5;fill-rule:evenodd;opacity:.3}</style></defs><path id="Logo" class="cls-1" d="M1030.2 4426.91a4.448 4.448 0 0 1-3.36-1.71 4.626 4.626 0 0 1-1.18-3.04c0-2.51 2.59-2.02 3.13-1.15a1.622 1.622 0 0 1 .19 1.18 4.518 4.518 0 0 1-1.13 1.79.39.39 0 0 0 0 .59 2.211 2.211 0 0 0 1.41.98c1.22.2 2.16-.49 2.81-2.07a6.1 6.1 0 0 0 .35-2.23 6.965 6.965 0 0 0-.23-1.84 10.034 10.034 0 0 0-1.56-3.37c-.77 1.21-1.72.72-.63-1.05a5.148 5.148 0 0 1-.04-1.51 1.133 1.133 0 0 1 1.45-1.02.913.913 0 0 1 .78 1.13 2.577 2.577 0 0 1-.71 1.21.348.348 0 0 0 0 .55c.26.39.79 1.04 1.57 1.95a16.407 16.407 0 0 1 1.44 1.64 5.642 5.642 0 0 1 1.06 2.66c.27 2.91-2.48 5.31-5.35 5.31zm-6.64-8.16a1.337 1.337 0 0 1-1.49-1.43 2.579 2.579 0 0 1 .04-.39c.24-.95.04-1.45-.58-1.5a2.172 2.172 0 0 0-1.78 1.18 8.979 8.979 0 0 0-1.39 3.2 12.153 12.153 0 0 0-.35 2.64c0 1.7.61 2.8 1.84 3.29a4.992 4.992 0 0 0 1.95.39 5.914 5.914 0 0 0 3.08-.82c.93-.55 1.42.31.58.81a7.974 7.974 0 0 1-4.17 1.03 12.073 12.073 0 0 1-2.81-.35 4.918 4.918 0 0 1-2.7-1.72 5.132 5.132 0 0 1-1.21-3.38 7.346 7.346 0 0 1 2.23-5.11 6.719 6.719 0 0 1 5-2.37 4.121 4.121 0 0 1 3.08 1.01 2.084 2.084 0 0 1 .63 1.76 1.723 1.723 0 0 1-1.95 1.76zm-.8-27.65h-2.27q-.42 2.025-.78 3.87a54.474 54.474 0 0 0-1.01 6.91c0 1.04.22 1.63.66 1.76a2.737 2.737 0 0 0 .43.04 2.948 2.948 0 0 0 1.77-.58c.58-.44 1.02.4.47.79a4.645 4.645 0 0 1-2.79.92 5.9 5.9 0 0 1-.74-.04c-1.59-.29-2.38-1.74-2.38-4.37a24.59 24.59 0 0 1 .7-5.24c.26-1.22.57-2.58.94-4.06h-1.13a.59.59 0 0 1-.67-.67.571.571 0 0 1 .67-.62h1.48a15.684 15.684 0 0 1 1.37-3.89 1.435 1.435 0 0 1 1.4-.94 1 1 0 0 1 .94 1.09 1.16 1.16 0 0 1-.08.43 21.57 21.57 0 0 0-.97 3.31h1.99a.568.568 0 0 1 .66.62.587.587 0 0 1-.66.67zm-8.9 6.28c0 .55-1.92.66-2.05-.24a6.238 6.238 0 0 1-.1-1.4c.03-.31 0-.47-.07-.47a.722.722 0 0 0-.32.27 37.126 37.126 0 0 0-2.1 3.36 36.257 36.257 0 0 0-1.92 5.24q-.15.465-1.44.51a3.309 3.309 0 0 1-1.12-.1.489.489 0 0 1-.41-.45q.165-2.625.67-5.74.27-1.755.78-3.75a17.522 17.522 0 0 1 .58-1.99 1.686 1.686 0 0 1 1.45-.36c.86.06 1.24.33 1.13.82-.1.65-.27 1.62-.51 2.89a22.472 22.472 0 0 0-.31 2.39.22.22 0 0 0 .16.15 1.171 1.171 0 0 0 .23-.35c.63-1.17 1.33-2.33 2.11-3.49a9.857 9.857 0 0 1 1.78-2.19 2.865 2.865 0 0 1 1.74-.45.882.882 0 0 1 1.01.98 6 6 0 0 1-.51 1.83 9.7 9.7 0 0 0-.78 2.54zm-14.439 7.38c-1.375-.18-2.179-1.2-2.413-3.07a5.981 5.981 0 0 1-5.214 3.07 3.715 3.715 0 0 1-3.035-1.43 4.722 4.722 0 0 1-1.129-3.19 7.823 7.823 0 0 1 .857-3.4 8.829 8.829 0 0 1 3.19-3.63 6.671 6.671 0 0 1 3.541-1.07 3.458 3.458 0 0 1 3.153 1.86 3.218 3.218 0 0 1 1.362-1.79 1.729 1.729 0 0 1 .737-.07c.75.05 1.09.24 1.01.58q-.465 1.65-1.32 5.31a24.8 24.8 0 0 0-.506 4.1c0 1.02.26 1.53.776 1.53a3.446 3.446 0 0 0 1.94-1.15c.6-.54 1.34.16.4 1.07a3.983 3.983 0 0 1-3.349 1.28zm-3.346-11.52a3.2 3.2 0 0 0-.662-.08q-2.49 0-3.892 5.16a13.13 13.13 0 0 0-.583 3.35c0 1.11.325 1.76.972 1.96a1.856 1.856 0 0 0 .585.08q2.178 0 4.163-3.74c.13-.25.259-.52.389-.8a25.053 25.053 0 0 1 .7-3.35 2.492 2.492 0 0 0-1.672-2.58zm-6.256 22.11c-.365 1.41-.821 3.41-1.367 6.02-.078.31-.026.48.156.5a.433.433 0 0 0 .43-.31 42.254 42.254 0 0 1 2.343-4.1c1.485-2.08 2.852-3.13 4.1-3.13a2.365 2.365 0 0 1 1.933.96 3.461 3.461 0 0 1 .762 2.21q0 .15-1.016 6.17c-.234 1.36-.2 2.1.118 2.19.568.16 1.308-.13 2.177-1.07.753-.8 1.283.07.593.76a4.48 4.48 0 0 1-3 1.56 2.637 2.637 0 0 1-2.128-1.02 3.486 3.486 0 0 1-.84-2.3 3.436 3.436 0 0 1 .077-.74q.626-2.625 1.368-5.78.351-1.455-.274-1.65a2.346 2.346 0 0 0-1.679.86 12.066 12.066 0 0 0-2.344 2.93 29.98 29.98 0 0 0-2.929 6.8c-.105.42-.6.62-1.484.62a8.959 8.959 0 0 1-1.016-.03.5.5 0 0 1-.469-.59q.117-1.8.586-6.25.624-4.455 1.367-5.2a2.287 2.287 0 0 1 1.445-.27c.857.05 1.221.34 1.091.86zm-8.065-11.48a9.28 9.28 0 0 0 3.861-1.05c1.015-.54 1.338.56.272 1.09a11.584 11.584 0 0 1-4.716 1.01 7.273 7.273 0 0 1-4.086-1.13 4.7 4.7 0 0 1-2.335-4.13q0-4.2 4.475-6.65a8.147 8.147 0 0 1 3.891-.97 3.221 3.221 0 0 1 2.958 1.28 2.469 2.469 0 0 1 .35 1.29 4.2 4.2 0 0 1-1.226 2.72 10.661 10.661 0 0 1-3.366 2.45 16.861 16.861 0 0 1-3.619 1.32 2.879 2.879 0 0 0 1.752 2.38 4.633 4.633 0 0 0 1.789.39zm-.116-5.3a5.881 5.881 0 0 0 1.42-1.88 4.811 4.811 0 0 0 .564-2.08 1.243 1.243 0 0 0-1.362-1.45 3.051 3.051 0 0 0-2.218 1.13 7.086 7.086 0 0 0-1.634 3.43 9.45 9.45 0 0 0-.311 2.29 6.361 6.361 0 0 0 3.541-1.44zm-9.842 2.22a9.962 9.962 0 0 0 1.33-.32c.9-.27 1.1.64.147 1a8.157 8.157 0 0 1-1.516.33c-.026.81-.039 1.44-.039 1.91q0 .93-.623.93h-2.529a.7.7 0 0 1-.779-.89c.049-.68.108-1.36.173-2.04a14.989 14.989 0 0 1-7.439-3.14 28.8 28.8 0 0 1-8.492 6.69c-2.649 1.41-3.611 1.57-6.744 1.61-4.754.07-11.363-2.52-15.582-6.98a2 2 0 0 1-.257-.33 6.149 6.149 0 0 0-.167 3.22c-2.175-3.23-1.9-5.5 1.5-6.52l.546 1.93a2.476 2.476 0 0 0-1.138.42 1.161 1.161 0 0 1 .262.18c3.609 2.9 9.61 5.64 14.045 5.85 3.241.16 3.846-.01 6.352-1.35a22.505 22.505 0 0 0 7.7-6.75c-1.971-2.66-2.215-5.66-.248-7.43a4.047 4.047 0 0 1 3.752-.79c.838-4.84-.488-9.22-3.811-10.98-3.339-1.77-7.827 2.37-8.846 6.17-.387 1.45-.9 6.54-2.6 2.24-1.579-4.01-9.28-10.45-13.279-4.88-3.042 4.24-.607 11.91 9.7 18.79 1.43.95 2.55 2.34-.861.87-11.408-4.93-15.555-15.83-12.834-20.17 3.706-5.91 11.234-5.43 17.408-.23 2.308-5.19 9.374-7.99 13.64-4.51 3.88 3.16 5.617 8.53 4.42 14.14a11.311 11.311 0 0 1 3.722 4.94 45.581 45.581 0 0 1 1.089-5.81 27.562 27.562 0 0 1 2.609-6.44c1.317-2.35 2.7-1.23 1.358 2.01-1.36 3.33-2.195 10.13-1.965 16.33zm-12.943-10.44c-1.172 1.19-.844 3.11.5 4.99a20.4 20.4 0 0 0 2.438-5.76 3.213 3.213 0 0 0-2.938.77zm5.831.66a20.186 20.186 0 0 1-3.3 6.49 15.137 15.137 0 0 0 6.684 3.18c.1-.92.19-1.87.293-2.84a11.583 11.583 0 0 0-3.677-6.83zm-33.262 14.96a102.846 102.846 0 0 0-3.71 16.1.867.867 0 0 0 .039.35.7.7 0 0 0 .2-.27 33.455 33.455 0 0 1 2.539-4.01 26.908 26.908 0 0 1 1.953-2.52 3.654 3.654 0 0 1 2.461-1.4 1.727 1.727 0 0 1 .547.08q2.382.69 2.187 3.86a18.763 18.763 0 0 1-1.133 5.35 4.615 4.615 0 0 0-.391 1.64.614.614 0 0 0 .626.75 3.055 3.055 0 0 0 2.159-1.05c.74-.74 1.271.27.34 1.01a4.871 4.871 0 0 1-2.968 1.25 2.567 2.567 0 0 1-2.207-1.13 3.41 3.41 0 0 1-.606-2.53 39.335 39.335 0 0 1 1.524-6.54 2.909 2.909 0 0 0 .156-.82.656.656 0 0 0-.742-.74q-1.1 0-4.1 4.75a58.618 58.618 0 0 0-2.968 5.99 1.3 1.3 0 0 1-1.289.55 6.786 6.786 0 0 1-1.094.04.536.536 0 0 1-.507-.59c0-.65.182-2.33.546-5.07a66.255 66.255 0 0 1 3.563-15.18c.232-.67 3.201-.9 2.875.13zm-7.24 7.31h-2.266q-.431 2.025-.781 3.87a55.772 55.772 0 0 0-1.015 6.91c0 1.04.22 1.63.664 1.76a2.771 2.771 0 0 0 .429.04 2.925 2.925 0 0 0 1.767-.58c.58-.43 1.019.4.476.79a4.67 4.67 0 0 1-2.789.92 5.878 5.878 0 0 1-.743-.04q-2.382-.42-2.382-4.37a24.74 24.74 0 0 1 .7-5.24c.261-1.22.573-2.58.938-4.06h-1.13a.585.585 0 0 1-.664-.66.572.572 0 0 1 .664-.63h1.483a15.979 15.979 0 0 1 1.368-3.89 1.443 1.443 0 0 1 1.406-.94 1 1 0 0 1 .937 1.09 1.316 1.316 0 0 1-.078.43 22.408 22.408 0 0 0-.977 3.31h1.993a.573.573 0 0 1 .664.63.585.585 0 0 1-.664.66zm-8.876 6.29c0 .55-1.92.65-2.057-.25a5.958 5.958 0 0 1-.092-1.39c.024-.31 0-.47-.078-.47a.75.75 0 0 0-.313.27 37.739 37.739 0 0 0-2.108 3.36 36.644 36.644 0 0 0-1.914 5.24c-.105.31-.586.48-1.446.5a3.048 3.048 0 0 1-1.113-.09.484.484 0 0 1-.41-.45 56.818 56.818 0 0 1 .663-5.74q.274-1.77.782-3.75a16.06 16.06 0 0 1 .586-2 1.7 1.7 0 0 1 1.445-.35c.86.05 1.238.33 1.133.82-.1.65-.273 1.62-.508 2.89a21.584 21.584 0 0 0-.312 2.39.23.23 0 0 0 .156.15 1.343 1.343 0 0 0 .235-.35 39.637 39.637 0 0 1 2.109-3.5 10.2 10.2 0 0 1 1.777-2.18 2.875 2.875 0 0 1 1.738-.45.877.877 0 0 1 1.016.97 5.948 5.948 0 0 1-.508 1.84 9.363 9.363 0 0 0-.781 2.54zm-14.972 4.92a10.417 10.417 0 0 1-7.224 3.06 8.278 8.278 0 0 1-6.95-3.49 12.427 12.427 0 0 1-2.434-7.7 18.47 18.47 0 0 1 1.375-6.79c2.119-5.43 7.336-12.62 14.12-11.91 8.082.84 8.18 12.04 6.295 18.11a19.4 19.4 0 0 1-5.182 8.72zm-1.182-25.2c-5.51-.67-8.447 6.54-9.694 10.77a30.021 30.021 0 0 0-1.373 8.45 10.6 10.6 0 0 0 1.256 5.62 4.081 4.081 0 0 0 3.69 2.12 8.225 8.225 0 0 0 6.675-3.49q2.552-3.33 3.573-9.5c.659-4.24 1.961-13.22-4.127-13.97zm-1.376 35.96h2.524v-1.69h.532v4.28h-.532v-2.09h-2.526v2.09h-.54v-4.28h.54v1.69zm10.368-1.2h-2.837v1.26h1.716v.49h-1.716v1.55h3.011v.49h-3.543v-4.28h3.369v.49zm5.509-.49l2.123 4.28h-.576l-.58-1.15h-2.37l-.567 1.15h-.57l2.1-4.28h.442zm.725 2.63l-.946-1.89-.939 1.89h1.885zm8.11-2.31a1.1 1.1 0 0 1 .356.87 1.208 1.208 0 0 1-.278.8 1.19 1.19 0 0 1-.736.41l1.069 1.88h-.588l-1.071-1.87h-1.661v1.87h-.533v-4.28h2.454a1.439 1.439 0 0 1 .988.32zm-2.909.17v1.42h1.89a.906.906 0 0 0 .611-.18.644.644 0 0 0 .207-.52.68.68 0 0 0-.207-.53.865.865 0 0 0-.585-.19h-1.916zm9.962 0h-1.8v3.79h-.532v-3.79h-1.8v-.49h4.138v.49zm7.392 3.79h-.54v-4.3h.54v4.3zm10.554-23.7a5.562 5.562 0 0 1 4.414 1.63 5.3 5.3 0 0 1 1.249 3.58 7.24 7.24 0 0 1-1 3.36c-1.162 2.07-3.208 4.21-6.113 4.32a5.863 5.863 0 0 1-4.532-1.56 5.089 5.089 0 0 1-1.562-3.79 7.137 7.137 0 0 1 2.383-5.35 7.431 7.431 0 0 1 5.161-2.19zm-1.719 11.83a3.46 3.46 0 0 0 2.539-1.17 7.281 7.281 0 0 0 1.758-4.06 11.133 11.133 0 0 0 .117-1.56q0-3.9-2.773-3.99a3.069 3.069 0 0 0-2.5 1.22 7.519 7.519 0 0 0-1.524 4.14 13.578 13.578 0 0 0-.117 1.68q0 3.78 2.5 3.74zm-1.845 10.79v-3.2h.532v4.28h-.271l-2.787-3.2v3.2h-.532v-4.28h.279zm11.791-2.71h-2.836v1.26h1.716v.49h-1.716v1.55h3.011v.49h-3.543v-4.28h3.368v.49zm-1.226-11.63a7.865 7.865 0 0 1 .235-1.83 8.735 8.735 0 0 1 3.093-4.85 6.831 6.831 0 0 1 4.224-1.6 3.808 3.808 0 0 1 3.125 1.6c.664-2.76 1.032-4.8 1.511-7.21a1.457 1.457 0 0 1 .156-.46.933.933 0 0 1 .4-.26 4.361 4.361 0 0 1 1.113-.21 1.973 1.973 0 0 1 1.322.19 1.085 1.085 0 0 1 .078.9c-.39 1.85-.483 1.49-1.472 6.62a77.219 77.219 0 0 0-1.406 9.22q0 1.41.7 1.41a3.645 3.645 0 0 0 2.07-1.37c.574-.6 1.165.13.469.82a4.649 4.649 0 0 1-3.164 1.6q-2.383 0-2.773-2.97a8.289 8.289 0 0 1-2.7 2.38 5.493 5.493 0 0 1-2.969.79 4.047 4.047 0 0 1-2.734-1.29 4.8 4.8 0 0 1-1.278-3.48zm4.688 3.67c1.172.24 2.474-.51 3.906-2.22a7.416 7.416 0 0 0 1.211-2.15c.13-.81.312-2.07.546-3.79q-.468-2.7-2.538-2.7-2.617 0-4.024 5.43a11.2 11.2 0 0 0-.39 2.74c0 1.61.429 2.51 1.289 2.69zm1.683 10.9l1.652-3.43h.589l-2.074 4.28h-.334l-2.064-4.28h.579zm8.841-2.94h-2.837v1.26h1.716v.49h-1.716v1.55h3.012v.49h-3.543v-4.28h3.368v.49zm8.508-19.91a5.561 5.561 0 0 1 4.414 1.63 5.3 5.3 0 0 1 1.25 3.58 7.254 7.254 0 0 1-1 3.36c-1.162 2.07-3.107 4.18-6.114 4.32a5.824 5.824 0 0 1-4.53-1.56 5.085 5.085 0 0 1-1.562-3.79 7.139 7.139 0 0 1 2.382-5.35 7.431 7.431 0 0 1 5.16-2.19zm-1.718 11.83a3.46 3.46 0 0 0 2.538-1.17 7.281 7.281 0 0 0 1.758-4.06 11.133 11.133 0 0 0 .117-1.56q0-3.9-2.773-3.99a3.071 3.071 0 0 0-2.5 1.22 7.519 7.519 0 0 0-1.524 4.14 13.578 13.578 0 0 0-.117 1.68q0 3.78 2.501 3.74zm.24 7.91a1.1 1.1 0 0 1 .356.87 1.2 1.2 0 0 1-.278.8 1.19 1.19 0 0 1-.736.41l1.07 1.88h-.588l-1.071-1.87h-1.662v1.87h-.532v-4.28h2.457a1.438 1.438 0 0 1 .984.32zm-2.909.17v1.42h1.891a.9.9 0 0 0 .61-.18.645.645 0 0 0 .208-.52.68.68 0 0 0-.208-.53.864.864 0 0 0-.584-.19h-1.917zm8.041 1.2l1.525-1.69h.675l-1.938 2.15v2.13h-.533v-2.14l-1.93-2.14h.669zm9.908 2.03a2.811 2.811 0 0 0 .972.18 1.66 1.66 0 0 0 .963-.25.754.754 0 0 0 .371-.65.6.6 0 0 0-.266-.51 1.378 1.378 0 0 0-.734-.25c-.076 0-.185-.01-.326-.02a4.685 4.685 0 0 1-1.441-.25 1.1 1.1 0 0 1-.454-.37.88.88 0 0 1-.155-.51 1.013 1.013 0 0 1 .461-.85 2.02 2.02 0 0 1 1.2-.33 3.209 3.209 0 0 1 1.057.17 3.469 3.469 0 0 1 .992.53l-.31.44a3.1 3.1 0 0 0-.833-.48 2.512 2.512 0 0 0-.9-.16 1.5 1.5 0 0 0-.8.19.538.538 0 0 0-.314.47.408.408 0 0 0 .051.2.561.561 0 0 0 .155.18 2.345 2.345 0 0 0 1.14.25c.27.02.479.03.626.05a1.8 1.8 0 0 1 1.032.42 1.1 1.1 0 0 1 .38.85 1.187 1.187 0 0 1-.521.99 2.3 2.3 0 0 1-1.369.38 3.8 3.8 0 0 1-1.19-.18 3.89 3.89 0 0 1-1.045-.57l.31-.46a4.016 4.016 0 0 0 .948.54zm8.74-1.1l1.74-2.62h.49v4.28h-.53v-3.34l-1.7 2.53-1.7-2.53v3.34h-.524v-4.28h.492zm1.24-18.84c.26-1.22.57-2.58.94-4.06h-1.14a.583.583 0 0 1-.66-.66.57.57 0 0 1 .66-.63h1.49a16.447 16.447 0 0 1 1.36-3.89 1.455 1.455 0 0 1 1.41-.94 1 1 0 0 1 .94 1.09 1.407 1.407 0 0 1-.08.43 22.794 22.794 0 0 0-.98 3.31h2a.57.57 0 0 1 .66.63.583.583 0 0 1-.66.66h-2.27q-.435 2.025-.78 3.87a55.584 55.584 0 0 0-1.02 6.91c0 1.04.22 1.63.67 1.76a2.737 2.737 0 0 0 .43.04 3.079 3.079 0 0 0 2.06-.83c.55-.49 1.41-.03.75.55a4.939 4.939 0 0 1-3.36 1.41 5.8 5.8 0 0 1-.74-.04q-2.385-.42-2.39-4.37a24.692 24.692 0 0 1 .71-5.24zm5.43 20.5h-.54v-4.3h.54v4.3zm5.08-27.72a1.488 1.488 0 0 1-1.17-.55 1.885 1.885 0 0 1-.47-1.29 2.142 2.142 0 0 1 .52-1.41 1.677 1.677 0 0 1 1.31-.62 1.43 1.43 0 0 1 1.19.55 1.9 1.9 0 0 1 .45 1.25 2.181 2.181 0 0 1-.52 1.44 1.642 1.642 0 0 1-1.31.63zm-2.23 4.68a1.523 1.523 0 0 1 1.33-.58 1.038 1.038 0 0 1 1.21 1.02 10.763 10.763 0 0 1-.43 2.23c-.36 1.49-.57 2.42-.62 2.78a29.22 29.22 0 0 0-.59 4.16c0 .89.27 1.33.82 1.33a2.357 2.357 0 0 0 1.76-.77c.72-.71 1.37.01.74.61a4.288 4.288 0 0 1-3.59 1.33 2.5 2.5 0 0 1-1.86-1.39 6.012 6.012 0 0 1-.72-3.07 10.567 10.567 0 0 1 .23-2.12c.68-3.14 1.25-4.97 1.72-5.53zm1.62 22.55h2.79v.49h-3.33v-4.28h.54v3.79zm9.45-3.3h-2.84v1.26h1.72v.49h-1.72v1.55h3.01v.49h-3.54v-4.28h3.37v.49z" transform="translate(-883.719 -4374.09)"/></svg>