<svg xmlns="http://www.w3.org/2000/svg" width="62" height="58.031" viewBox="0 0 62 58.031"><defs><style>.cls-1{fill:#f1f0ee;fill-rule:evenodd}</style></defs><path id="Rectangle_45_copy_4" data-name="Rectangle 45 copy 4" class="cls-1" d="M267 446a7.015 7.015 0 0 1-1-.075V468h-46v-22.075a6.979 6.979 0 0 1-8-6.925 1.007 1.007 0 0 1 .1-.448l10-20a1 1 0 0 1 .9-.552h40a1 1 0 0 1 .894.553l10 20A1.007 1.007 0 0 1 274 439a7.008 7.008 0 0 1-7 7zm-43-26h-.382l-9.613 19.225A5 5 0 0 0 224 439v-19zm12 0h-10v19a5 5 0 0 0 10 0v-19zm12 0h-10v19a5 5 0 0 0 10 0v-19zm-5 26a7.006 7.006 0 0 1-6-3.4 7 7 0 0 1-12 0 7.032 7.032 0 0 1-3 2.706V466h42v-20.691a7.032 7.032 0 0 1-3-2.706 7 7 0 0 1-12 0 7.006 7.006 0 0 1-6 3.397zm7-7a5 5 0 0 0 10 0v-19h-10v19zm12.382-19H262v19a5 5 0 0 0 10 .225zm-.37-.737h-2v-7.252h-6v7.252h-2v-8.278a1 1 0 0 1 1-1 .965.965 0 0 1 .132.027h7.735a.979.979 0 0 1 .133-.027 1 1 0 0 1 1 1v8.278zm-34.027 39.725a1 1 0 0 1 1-1h28a1 1 0 0 1 0 2h-28a1 1 0 0 1-1-1z" transform="translate(-212 -409.969)"/></svg>