<svg xmlns="http://www.w3.org/2000/svg" width="38" height="26" viewBox="0 0 38 26"><path fill="#FFF" d="M30.524 10.692c-.48 0-.955.046-1.42.137C28.891 5.105 24.171.513 18.399.513c-5.308 0-9.798 3.93-10.586 9.097-4.279.104-7.729 3.621-7.729 7.928 0 4.373 3.555 7.93 7.925 7.93h6.63a.909.909 0 0 0 0-1.817h-6.63A6.118 6.118 0 0 1 1.9 17.537c0-3.371 2.741-6.114 6.109-6.114.165 0 .34.008.535.025l.92.079.064-.922c.322-4.641 4.219-8.277 8.872-8.277 4.905 0 8.896 3.994 8.896 8.903 0 .225-.011.467-.033.737l-.119 1.45 1.354-.529a5.531 5.531 0 0 1 2.027-.382 5.586 5.586 0 0 1 5.577 5.581 5.586 5.586 0 0 1-5.577 5.581l-4.897-.009-4.841-.01c-.565 0-.86-.272-.878-.809v-9.805l.985 1.171a.907.907 0 1 0 1.389-1.17L20.1 10.442a1.418 1.418 0 0 0-1.084-.514c-.414 0-.809.188-1.084.514l-2.183 2.595a.908.908 0 0 0 1.389 1.171l.956-1.137v9.78c0 1.052.717 2.617 2.693 2.617l4.837.009 4.901.01c4.076 0 7.392-3.318 7.392-7.397-.001-4.079-3.317-7.398-7.393-7.398z"/></svg>