<svg xmlns="http://www.w3.org/2000/svg" width="40" height="40" viewBox="0 0 40 40"><defs><style>.cls-1{fill:#a9a790;fill-rule:evenodd}</style></defs><path class="cls-1" d="M26.21 27.717l-.62.353a5.117 5.117 0 0 1-3.81.75c-2.37-.437-4.57-2.383-6.55-5.785s-2.58-6.261-1.77-8.5a4.973 4.973 0 0 1 2.57-2.868l.62-.353c1.14-.648 1.77.217 2.26 1.443l.3.743c.49 1.227.65 2.358-.49 3.007l-.69.392c-.5.28-2.44.466-.05 4.571s3.53 2.546 4.03 2.262l.69-.392c1.14-.647 2.05.06 2.88 1.094l.5.626c.83 1.04 1.27 2.01.13 2.657zM20 40a20 20 0 1 1 20-20 20 20 0 0 1-20 20zm0-38.373A18.373 18.373 0 1 0 38.37 20 18.369 18.369 0 0 0 20 1.627z"/></svg>