<svg xmlns="http://www.w3.org/2000/svg" width="90" height="90" viewBox="0 0 90 90"><path fill-rule="evenodd" clip-rule="evenodd" fill="#FFF" d="M77.969 31.686V61.5a1 1 0 0 1-1 1h-9.601c-.488 3.386-3.401 6-6.92 6s-6.432-2.614-6.92-6h-18.16c-.488 3.386-3.401 6-6.92 6-3.52 0-6.432-2.614-6.92-6h-8.549a1 1 0 0 1-1-1v-14a1 1 0 0 1 .4-.8l19.59-14.692V22.5a1 1 0 0 1 1-1h44.052a1 1 0 0 1 1 1v8.867c0 .112-.019.219-.052.319zM60.447 66.5c2.757 0 5-2.243 5-5s-2.243-5-5-5-5 2.243-5 5 2.243 5 5 5zM31.969 34.507L13.979 48v12.5h7.549c.488-3.387 3.401-6 6.92-6 1.285 0 2.486.354 3.521.961V34.507zM28.447 56.5c-2.757 0-5 2.243-5 5s2.243 5 5 5 5-2.243 5-5-2.243-5-5-5zm47.522-33h-41.99v7.351a4.51 4.51 0 0 0 4.505 4.505 4.51 4.51 0 0 0 4.505-4.505 1 1 0 0 1 2 0 4.51 4.51 0 0 0 4.505 4.505A4.511 4.511 0 0 0 54 30.851a1 1 0 0 1 2 0 4.51 4.51 0 0 0 4.505 4.505 4.511 4.511 0 0 0 4.506-4.505 1 1 0 1 1 2 0 4.51 4.51 0 0 0 4.505 4.505c2.306 0 4.191-1.747 4.453-3.983V23.5zm0 12.07a6.465 6.465 0 0 1-4.453 1.786 6.504 6.504 0 0 1-5.505-3.043 6.503 6.503 0 0 1-11.011 0 6.504 6.504 0 0 1-5.505 3.043 6.504 6.504 0 0 1-5.505-3.043 6.504 6.504 0 0 1-5.505 3.043 6.474 6.474 0 0 1-4.505-1.831v21.701a6.976 6.976 0 0 1 1.384 3.274h18.165c.488-3.387 3.401-6 6.92-6s6.433 2.614 6.92 6h8.601V35.57zM39.954 46.488a1 1 0 0 1 1-1h28a1 1 0 0 1 0 2h-28a.998.998 0 0 1-1-1z"/></svg>