<svg xmlns="http://www.w3.org/2000/svg" width="90" height="90" viewBox="0 0 90 90"><path fill="#0067AB" d="M70.4 75H19.6a4.604 4.604 0 0 1-4.6-4.599V19.6c0-2.536 2.063-4.6 4.6-4.6h50.8c2.536 0 4.6 2.064 4.6 4.6v50.801A4.604 4.604 0 0 1 70.4 75zM73 19.6c0-1.434-1.166-2.6-2.6-2.6H19.6a2.603 2.603 0 0 0-2.6 2.6v50.801c0 1.434 1.167 2.6 2.6 2.6h50.8c1.434 0 2.6-1.166 2.6-2.6V19.6zM68.5 70h-7a1.5 1.5 0 0 1 0-3h7a1.5 1.5 0 1 1 0 3zM45 65c-11.046 0-20-8.955-20-20 0-11.046 8.954-20 20-20s20 8.954 20 20c0 11.045-8.954 20-20 20zm9.855-13.163l-3.485-2.012a7.978 7.978 0 0 1-12.733.011l-3.485 2.012C37.321 54.96 40.92 57 45 57c4.085 0 7.688-2.045 9.855-5.163zm-2.478-3.74l3.472 2.004A11.915 11.915 0 0 0 57 45c0-6.292-4.845-11.443-11.006-11.95v4.018C49.942 37.558 53 40.919 53 45a7.962 7.962 0 0 1-.623 3.097zm-8.371 14.84v-3.999a13.976 13.976 0 0 1-10.596-6.084l-3.464 2a17.968 17.968 0 0 0 14.06 8.083zM27 45c0 2.925.713 5.678 1.95 8.119l3.47-2.003A13.94 13.94 0 0 1 31 45c0-2.192.514-4.26 1.413-6.105L28.94 36.89A17.87 17.87 0 0 0 27 45zm16.994-17.949c-5.883.326-11.011 3.471-14.055 8.107l3.477 2.007c2.341-3.447 6.174-5.8 10.578-6.114v-4zm0 6C37.838 33.563 33 38.713 33 45c0 1.831.422 3.561 1.156 5.114l3.471-2.004A7.97 7.97 0 0 1 37 45c0-4.076 3.051-7.433 6.994-7.93v-4.019zM39 45a6 6 0 1 0 12 0 6 6 0 0 0-12 0zm6.994-17.95v4c4.405.31 8.239 2.66 10.583 6.104l3.477-2.008c-3.047-4.632-8.177-7.774-14.06-8.096zM63 45a17.87 17.87 0 0 0-1.946-8.122l-3.473 2.005A13.892 13.892 0 0 1 59 45c0 2.191-.518 4.257-1.415 6.104l3.47 2.004A17.903 17.903 0 0 0 63 45zm-6.403 7.843a13.976 13.976 0 0 1-10.591 6.094v3.998a17.961 17.961 0 0 0 14.054-8.093l-3.463-1.999zM31.5 23a1.5 1.5 0 1 1 .001-3.001A1.5 1.5 0 0 1 31.5 23zm-5 0a1.5 1.5 0 1 1 .001-3.001A1.5 1.5 0 0 1 26.5 23zm-5 0a1.5 1.5 0 1 1 0-3 1.5 1.5 0 0 1 0 3z"/></svg>