<svg xmlns="http://www.w3.org/2000/svg" width="225" height="70" viewBox="0 0 225 70"><path fill-rule="evenodd" clip-rule="evenodd" fill="#A9A790" d="M2.503 26.411v-4.599l30.561-13.19h7.689V2.394h4.302v15.963h-4.302v-5.335h-7.03l-20.779 8.791h72.807l-20.779-8.791h-5.108V8.623h5.766l30.561 13.19v4.599H2.503v-.001zm51.113-8.054h4.302V2.394h-4.302v6.229h-6.615v4.399h6.615v5.335z"/><path fill-rule="evenodd" clip-rule="evenodd" fill="#FFF" d="M221.539 45.68l.24 3.234c.065.748.148 1.299.259 1.649.106.351.263.67.471.961h-3.303a3.434 3.434 0 0 1-.226-.814 11.703 11.703 0 0 1-.134-1.27l-.245-2.966c-.116-1.377-.458-2.314-1.022-2.805-.563-.494-1.574-.739-2.998-.739h-7.512v8.594h-2.801V31.509h10.53c2.315 0 4.08.466 5.29 1.395 1.206.928 1.811 2.287 1.811 4.071 0 1.279-.286 2.328-.859 3.137-.573.813-1.428 1.4-2.574 1.76 1.012.153 1.751.522 2.227 1.109.471.587.753 1.488.846 2.699zm-2.468-8.498c0-1.205-.393-2.056-1.179-2.537-.785-.485-2.276-.725-4.449-.725h-6.375v6.543h6.62c2.001 0 3.401-.25 4.191-.745.795-.498 1.192-1.344 1.192-2.536zm-33.097-5.673h15.913v2.55h-13.085v5.905h12.281v2.633h-12.281v6.238h13.279v2.689h-16.107V31.509zm-5.406 18.162a8 8 0 0 1-2.948 1.428c-1.113.282-2.824.425-5.12.425h-8.811V31.509h8.811c2.301 0 4.006.143 5.12.425a7.902 7.902 0 0 1 2.948 1.442c1.095.85 1.924 1.967 2.486 3.345.561 1.375.845 2.981.845 4.801 0 1.825-.284 3.426-.845 4.801-.561 1.374-1.391 2.488-2.486 3.348zm-.208-11.777c-.402-1.076-.951-1.913-1.645-2.509-.559-.489-1.252-.841-2.074-1.057-.818-.217-1.9-.323-3.221-.323h-6.903v14.998h6.903c1.326 0 2.403-.111 3.221-.333.822-.221 1.515-.573 2.074-1.063.693-.595 1.246-1.439 1.645-2.522.4-1.083.601-2.287.601-3.595 0-1.318-.199-2.515-.601-3.596zm-33.736-6.385h2.827v17.327h12.254v2.689h-15.081V31.509zm-6.211 0h2.827v20.016h-2.827V31.509zm-12.287 20.542c-2.897 0-5.097-.68-6.593-2.038-1.497-1.353-2.245-3.335-2.245-5.947V31.509h2.827V42.88c0 2.207.486 3.839 1.461 4.883.975 1.048 2.49 1.571 4.551 1.571 2.065 0 3.585-.522 4.56-1.562.975-1.044 1.46-2.675 1.46-4.893v-11.37h2.828v12.558c0 2.61-.753 4.594-2.255 5.947-1.502 1.358-3.701 2.037-6.594 2.037zm-10.937-6.349c0 1.978-.577 3.442-1.732 4.394-1.155.953-2.944 1.428-5.365 1.428H99.225V31.509h11.139c1.95 0 3.447.439 4.5 1.311 1.049.874 1.575 2.121 1.575 3.734 0 1.063-.263 1.959-.785 2.684-.522.73-1.316 1.303-2.379 1.728 1.271.241 2.24.773 2.911 1.59.67.817 1.003 1.867 1.003 3.146zm-3.577-8.787c0-1.012-.3-1.743-.905-2.199-.605-.458-1.58-.684-2.925-.684h-7.73v5.793h7.12c1.635 0 2.781-.221 3.446-.669.662-.449.994-1.193.994-2.241zm-.461 6.321c-.693-.537-1.797-.805-3.313-.805h-7.786v6.376h7.379c1.678 0 2.892-.24 3.641-.716.748-.48 1.123-1.247 1.123-2.301 0-1.165-.346-2.013-1.044-2.554zm-22.947 6.505a7.912 7.912 0 0 1-2.96 1.862c-1.134.406-2.463.606-3.992.606-3.288 0-5.957-.953-8.014-2.863-1.326-1.228-2.225-2.69-2.697-4.388-.509 1.768-1.472 3.255-2.892 4.461-2.208 1.886-5.229 2.827-9.058 2.827-3.828 0-6.856-.941-9.076-2.827-1.428-1.207-2.397-2.696-2.908-4.465-.508 1.77-1.472 3.259-2.893 4.465-2.208 1.886-5.229 2.827-9.057 2.827-3.829 0-6.856-.941-9.076-2.827-1.511-1.277-2.508-2.869-2.993-4.776v6.911h-6.079v-9.513c0-2.19-.316-3.695-.953-4.514-.631-.819-1.729-1.226-3.294-1.226-1.766 0-3.155.497-4.168 1.487-1.013.989-1.523 2.348-1.523 4.077v9.689h-6.08V28.672H8.57v6.204c1.056-1.146 2.214-2.008 3.483-2.572 1.267-.564 2.657-.843 4.162-.843 1.681 0 3.137.26 4.363.782 1.225.522 2.178 1.292 2.857 2.312.412.631.71 1.365.886 2.214.111.537.188 1.265.23 2.183.468-1.967 1.471-3.602 3.011-4.901 2.208-1.875 5.242-2.809 9.094-2.809 3.84 0 6.861.934 9.07 2.809a8.964 8.964 0 0 1 2.879 4.444 8.945 8.945 0 0 1 2.891-4.444c2.209-1.875 5.242-2.809 9.094-2.809 3.841 0 6.861.934 9.07 2.809a8.973 8.973 0 0 1 2.936 4.65c.486-1.619 1.368-3.016 2.646-4.189 2.063-1.887 4.769-2.832 8.112-2.832 1.493 0 2.809.211 3.95.63a7.482 7.482 0 0 1 2.9 1.911v-5.549h6.079v22.883h-6.079v-1.814zM40.872 37.583c-1.049-1.025-2.451-1.535-4.216-1.535-1.766 0-3.173.516-4.235 1.553-1.062 1.037-1.59 2.42-1.59 4.149 0 1.735.528 3.112 1.59 4.144s2.469 1.547 4.235 1.547c1.753 0 3.155-.515 4.21-1.553 1.049-1.038 1.577-2.427 1.577-4.168 0-1.735-.522-3.112-1.571-4.137zm23.935 0c-1.05-1.025-2.451-1.535-4.217-1.535-1.765 0-3.173.516-4.235 1.553-1.061 1.037-1.59 2.42-1.59 4.149 0 1.735.528 3.112 1.59 4.144s2.47 1.547 4.235 1.547c1.754 0 3.155-.515 4.211-1.553 1.049-1.038 1.577-2.427 1.577-4.168 0-1.735-.521-3.112-1.571-4.137zm23.832.346c-1.043-1.013-2.433-1.517-4.174-1.517-1.771 0-3.173.504-4.21 1.511-1.038 1.007-1.553 2.366-1.553 4.083 0 1.712.522 3.064 1.565 4.071 1.044 1.007 2.439 1.511 4.199 1.511 1.741 0 3.131-.51 4.174-1.535 1.044-1.025 1.565-2.384 1.565-4.076-.001-1.689-.523-3.036-1.566-4.048z"/></svg>