<svg xmlns="http://www.w3.org/2000/svg" width="225" height="70" viewBox="0 0 225 70"><path fill-rule="evenodd" clip-rule="evenodd" fill="#484848" d="M51.909 64.688l-2.21-5.117h-.89l2.697 5.884c-.243.566-.463.942-.656 1.128-.195.184-.44.277-.737.277-.091 0-.199-.008-.323-.025a6.068 6.068 0 0 1-.432-.074v.736c.141.037.266.065.371.082.108.019.206.028.297.028.475 0 .847-.088 1.116-.263.268-.174.539-.559.81-1.153l3.042-6.62h-.86l-2.225 5.117zm-20.272.085a.943.943 0 0 1-.165.014c-.121 0-.203-.034-.251-.1-.046-.067-.07-.232-.07-.492v-2.619c0-.411-.026-.714-.078-.913a1.428 1.428 0 0 0-.26-.523 1.662 1.662 0 0 0-.817-.544c-.348-.114-.801-.17-1.364-.17-.882 0-1.552.173-2.015.516-.462.345-.717.863-.76 1.556h.769c.03-.457.219-.8.568-1.028.351-.229.864-.342 1.538-.342.537 0 .943.084 1.222.253a.815.815 0 0 1 .416.739c0 .442-.481.721-1.443.838l-.609.076c-.676.095-1.153.182-1.432.261a2.109 2.109 0 0 0-.665.297 1.53 1.53 0 0 0-.464.55c-.104.21-.156.446-.156.707 0 .565.195 1.002.583 1.31.388.308.94.463 1.655.463.566 0 1.05-.083 1.449-.249a2.985 2.985 0 0 0 1.083-.799c.03.344.104.587.223.726.119.14.308.21.57.21.096 0 .198-.009.306-.028.106-.019.219-.044.338-.082l-.004-.668a1.232 1.232 0 0 1-.167.041zm-1.266-1.69c0 .544-.229.986-.684 1.326-.455.34-1.047.511-1.777.511-.468 0-.839-.095-1.114-.286-.277-.19-.414-.443-.414-.764 0-.306.113-.538.338-.693.225-.153.763-.297 1.616-.431.646-.098 1.111-.18 1.397-.247.284-.068.498-.141.639-.221v.805zm31.805-3.724c-.943 0-1.707.291-2.286.872-.582.584-.871 1.347-.871 2.289 0 .943.29 1.709.871 2.292.579.585 1.343.877 2.286.877.94 0 1.702-.291 2.285-.877.585-.583.876-1.349.876-2.292 0-.938-.291-1.702-.876-2.285-.583-.585-1.345-.876-2.285-.876zm1.718 4.917c-.429.436-1.001.655-1.718.655-.722 0-1.296-.217-1.725-.652-.427-.436-.641-1.021-.641-1.758 0-.732.213-1.315.641-1.752.429-.435 1.003-.652 1.725-.652.717 0 1.289.217 1.718.652.427.437.641 1.02.641 1.752 0 .733-.213 1.318-.641 1.755zm-16.592 1.201h.769v-8.046h-.769v8.046zM24.03 57.42c-.468 0-.793.111-.973.336-.182.225-.273.674-.273 1.346v.468H21.78v.646h1.003v5.26h.78v-5.26H24.9v-.646h-1.337v-.581c0-.369.046-.603.141-.704.095-.102.273-.153.539-.153.083 0 .173.008.271.021.098.015.227.041.386.08v-.678a5.863 5.863 0 0 0-.468-.1 2.448 2.448 0 0 0-.402-.035zm16.837 2.028c-.522 0-.993.102-1.413.309a2.82 2.82 0 0 0-1.059.904 1.804 1.804 0 0 0-.795-.914c-.359-.199-.823-.299-1.393-.299-.526 0-.997.102-1.415.309a2.808 2.808 0 0 0-1.055.904v-1.09h-.747v5.906h.769v-3.362c0-.578.217-1.049.654-1.416.435-.366.99-.55 1.664-.55.598 0 1.022.147 1.269.44.247.293.37.817.37 1.567v3.319h.702v-3.362c0-.578.217-1.049.654-1.416.434-.366.99-.55 1.664-.55.594 0 1.014.147 1.259.439.245.292.368.815.368 1.569v3.319h.78v-3.82c0-.758-.184-1.315-.552-1.672-.37-.356-.945-.534-1.724-.534zm3.926 6.029h.769v-5.906h-.769v5.906zm0-7.132h.769v-.914h-.769v.914zm143.554 7.132h.769v-5.906h-.769v5.906zm-3.937-6.029c-.528 0-.999.102-1.415.309a2.8 2.8 0 0 0-1.057.904v-1.09h-.747v5.906h.769v-3.362c0-.578.217-1.049.654-1.416.435-.366.99-.55 1.664-.55.598 0 1.022.147 1.269.44.247.293.37.817.37 1.567v3.319h.769v-3.82c0-.758-.184-1.315-.553-1.672-.369-.357-.943-.535-1.723-.535zM68.189 57.42c-.468 0-.793.111-.973.336-.182.225-.273.674-.273 1.346v.468H65.94v.646h1.003v5.26h.78v-5.26h1.337v-.646h-1.337v-.581c0-.369.047-.603.141-.704.095-.102.273-.153.539-.153.083 0 .173.008.271.021.098.015.227.041.386.08v-.678a5.863 5.863 0 0 0-.468-.1 2.469 2.469 0 0 0-.403-.035zm120.158.925h.769v-.914h-.769v.914zm5.253 1.014c-.942 0-1.705.291-2.284.872-.581.584-.871 1.347-.871 2.289 0 .951.29 1.718.867 2.298.579.582 1.343.871 2.29.871.739 0 1.371-.189 1.896-.566a2.564 2.564 0 0 0 1.02-1.528h-.87a1.876 1.876 0 0 1-.754.986c-.359.234-.789.351-1.295.351-.696 0-1.246-.195-1.649-.585-.403-.388-.626-.942-.67-1.656h5.461v-.178c0-.956-.286-1.72-.86-2.294-.574-.574-1.334-.86-2.281-.86zm-2.298 2.685c.05-.589.284-1.06.702-1.417.418-.354.949-.533 1.595-.533.635 0 1.161.178 1.575.533.412.357.643.829.685 1.417h-4.557zm11.427.666c-.286-.249-.756-.422-1.41-.52l-1.519-.234c-.518-.076-.873-.182-1.066-.318a.68.68 0 0 1-.288-.585c0-.307.151-.544.452-.719.301-.174.722-.262 1.263-.262.606 0 1.076.1 1.41.3.333.2.529.501.587.904h.769c-.011-.6-.251-1.068-.721-1.408-.468-.339-1.114-.509-1.937-.509-.815 0-1.456.156-1.924.468-.466.312-.7.736-.7 1.269 0 .472.147.836.442 1.089.295.254.778.431 1.448.53l1.72.254c.39.06.671.158.843.297.173.139.26.335.26.584 0 .355-.173.627-.52.812-.347.188-.852.281-1.518.281-.628 0-1.112-.111-1.456-.335-.344-.223-.542-.553-.596-.992h-.78c.046.663.308 1.176.786 1.535.477.358 1.133.538 1.967.538.953 0 1.677-.164 2.175-.49.496-.325.745-.8.745-1.425-.001-.461-.144-.816-.432-1.064zm-22.89 2.063a.935.935 0 0 1-.165.014c-.121 0-.202-.034-.251-.1-.047-.067-.071-.232-.071-.492v-2.619c0-.411-.026-.714-.078-.913a1.428 1.428 0 0 0-.26-.523 1.662 1.662 0 0 0-.817-.544c-.347-.114-.8-.17-1.363-.17-.882 0-1.553.173-2.015.516-.463.345-.717.863-.76 1.556h.769c.03-.457.219-.8.568-1.028.351-.229.863-.342 1.538-.342.537 0 .943.084 1.222.253a.815.815 0 0 1 .416.739c0 .442-.481.721-1.443.838l-.609.076c-.676.095-1.154.182-1.432.261a2.13 2.13 0 0 0-.665.297 1.53 1.53 0 0 0-.464.55c-.104.21-.156.446-.156.707 0 .565.195 1.002.583 1.31.389.308.94.463 1.655.463.566 0 1.049-.083 1.449-.249a2.985 2.985 0 0 0 1.083-.799c.029.344.104.587.223.726.119.14.308.21.57.21.097 0 .199-.009.306-.028.106-.019.219-.044.338-.082l-.003-.668a1.367 1.367 0 0 1-.168.041zm-1.267-1.69c0 .544-.229.986-.684 1.326-.455.34-1.048.511-1.778.511-.468 0-.839-.095-1.114-.286-.277-.19-.414-.443-.414-.764 0-.306.113-.538.338-.693.225-.153.763-.297 1.616-.431a20.06 20.06 0 0 0 1.396-.247c.284-.068.498-.141.639-.221v.805zm-28.302-3.724c-.944 0-1.707.291-2.286.872-.581.584-.871 1.347-.871 2.289 0 .943.29 1.709.871 2.292.579.585 1.343.877 2.286.877.94 0 1.701-.291 2.284-.877.585-.583.877-1.349.877-2.292 0-.938-.292-1.702-.877-2.285-.583-.585-1.344-.876-2.284-.876zm1.718 4.917c-.429.436-1.001.655-1.718.655-.722 0-1.296-.217-1.726-.652-.427-.436-.641-1.021-.641-1.758 0-.732.214-1.315.641-1.752.429-.435 1.003-.652 1.726-.652.717 0 1.289.217 1.718.652.427.437.641 1.02.641 1.752 0 .733-.214 1.318-.641 1.755zm17.591-4.839c-.507 0-.949.095-1.326.282-.377.189-.715.485-1.012.888v-1.036h-.78v8.025h.78v-3.129c.305.394.646.686 1.023.873.377.188.815.283 1.315.283.929 0 1.683-.286 2.263-.86.581-.571.871-1.318.871-2.24 0-.921-.288-1.666-.862-2.234-.576-.568-1.332-.852-2.272-.852zm1.694 4.807c-.423.429-.992.642-1.703.642-.711 0-1.278-.213-1.698-.639-.422-.427-.631-1.001-.631-1.723s.21-1.296.631-1.724c.42-.425.986-.638 1.698-.638.711 0 1.28.216 1.703.644.425.431.637 1.003.637 1.718 0 .718-.212 1.293-.637 1.72zm-26.434.248c-.383.292-.841.439-1.378.439-.721 0-1.295-.217-1.723-.654-.428-.434-.641-1.02-.641-1.757 0-.724.215-1.311.648-1.757.431-.446.995-.669 1.692-.669.522 0 .96.123 1.317.368.354.246.604.598.745 1.059h.802a2.368 2.368 0 0 0-.938-1.564c-.524-.4-1.159-.598-1.902-.598-.943 0-1.705.291-2.284.872-.582.584-.871 1.347-.871 2.289 0 .943.29 1.709.871 2.292.579.585 1.343.877 2.284.877.769 0 1.423-.22 1.963-.659a2.507 2.507 0 0 0 .933-1.704h-.792a1.902 1.902 0 0 1-.726 1.166zm17.728-5.044c-.522 0-.993.102-1.413.309a2.82 2.82 0 0 0-1.059.904 1.804 1.804 0 0 0-.795-.914c-.359-.199-.823-.299-1.393-.299-.526 0-.997.102-1.415.309a2.808 2.808 0 0 0-1.055.904v-1.09h-.747v5.906h.769v-3.362c0-.578.217-1.049.654-1.416.435-.366.99-.55 1.664-.55.598 0 1.021.147 1.269.44.247.293.37.817.37 1.567v3.319h.702v-3.362c0-.578.217-1.049.654-1.416.435-.366.99-.55 1.664-.55.594 0 1.014.147 1.259.439.245.292.368.815.368 1.569v3.319h.78v-3.82c0-.758-.184-1.315-.552-1.672-.37-.356-.944-.534-1.724-.534z"/><path fill-rule="evenodd" clip-rule="evenodd" fill="#A9A790" d="M2.503 26.411v-4.599l30.561-13.19h7.689V2.394h4.302v15.963h-4.302v-5.335h-7.03l-20.779 8.791h72.807l-20.779-8.791h-5.108V8.623h5.766l30.561 13.19v4.599H2.503v-.001zm51.113-8.054h4.302V2.394h-4.302v6.229h-6.615v4.399h6.615v5.335z"/><path fill-rule="evenodd" clip-rule="evenodd" fill="#0067AB" d="M221.539 45.68l.24 3.234c.065.748.148 1.299.259 1.649.106.351.263.67.471.961h-3.303a3.434 3.434 0 0 1-.226-.814 11.703 11.703 0 0 1-.134-1.27l-.245-2.966c-.116-1.377-.458-2.314-1.022-2.805-.563-.494-1.574-.739-2.998-.739h-7.512v8.594h-2.801V31.509h10.53c2.315 0 4.08.466 5.29 1.395 1.206.928 1.811 2.287 1.811 4.071 0 1.279-.286 2.328-.859 3.137-.573.813-1.428 1.4-2.574 1.76 1.012.153 1.751.522 2.227 1.109.471.587.753 1.488.846 2.699zm-2.468-8.498c0-1.205-.393-2.056-1.179-2.537-.785-.485-2.276-.725-4.449-.725h-6.375v6.543h6.62c2.001 0 3.401-.25 4.191-.745.795-.498 1.192-1.344 1.192-2.536zm-33.097-5.673h15.913v2.55h-13.085v5.905h12.281v2.633h-12.281v6.238h13.279v2.689h-16.107V31.509zm-5.406 18.162a8 8 0 0 1-2.948 1.428c-1.113.282-2.824.425-5.12.425h-8.811V31.509h8.811c2.301 0 4.006.143 5.12.425a7.902 7.902 0 0 1 2.948 1.442c1.095.85 1.924 1.967 2.486 3.345.561 1.375.845 2.981.845 4.801 0 1.825-.284 3.426-.845 4.801-.561 1.374-1.391 2.488-2.486 3.348zm-.208-11.777c-.402-1.076-.951-1.913-1.645-2.509-.559-.489-1.252-.841-2.074-1.057-.818-.217-1.9-.323-3.221-.323h-6.903v14.998h6.903c1.326 0 2.403-.111 3.221-.333.822-.221 1.515-.573 2.074-1.063.693-.595 1.246-1.439 1.645-2.522.4-1.083.601-2.287.601-3.595 0-1.318-.199-2.515-.601-3.596zm-33.736-6.385h2.827v17.327h12.254v2.689h-15.081V31.509zm-6.211 0h2.827v20.016h-2.827V31.509zm-12.287 20.542c-2.897 0-5.097-.68-6.593-2.038-1.497-1.353-2.245-3.335-2.245-5.947V31.509h2.827V42.88c0 2.207.486 3.839 1.461 4.883.975 1.048 2.49 1.571 4.551 1.571 2.065 0 3.585-.522 4.56-1.562.975-1.044 1.46-2.675 1.46-4.893v-11.37h2.828v12.558c0 2.61-.753 4.594-2.255 5.947-1.502 1.358-3.701 2.037-6.594 2.037zm-10.937-6.349c0 1.978-.577 3.442-1.732 4.394-1.155.953-2.944 1.428-5.365 1.428H99.225V31.509h11.139c1.95 0 3.447.439 4.5 1.311 1.049.874 1.575 2.121 1.575 3.734 0 1.063-.263 1.959-.785 2.684-.522.73-1.316 1.303-2.379 1.728 1.271.241 2.24.773 2.911 1.59.67.817 1.003 1.867 1.003 3.146zm-3.577-8.787c0-1.012-.3-1.743-.905-2.199-.605-.458-1.58-.684-2.925-.684h-7.73v5.793h7.12c1.635 0 2.781-.221 3.446-.669.662-.449.994-1.193.994-2.241zm-.461 6.321c-.693-.537-1.797-.805-3.313-.805h-7.786v6.376h7.379c1.678 0 2.892-.24 3.641-.716.748-.48 1.123-1.247 1.123-2.301 0-1.165-.346-2.013-1.044-2.554zm-22.947 6.505a7.912 7.912 0 0 1-2.96 1.862c-1.134.406-2.463.606-3.992.606-3.288 0-5.957-.953-8.014-2.863-1.326-1.228-2.225-2.69-2.697-4.388-.509 1.768-1.472 3.255-2.892 4.461-2.208 1.886-5.229 2.827-9.058 2.827-3.828 0-6.856-.941-9.076-2.827-1.428-1.207-2.397-2.696-2.908-4.465-.508 1.77-1.472 3.259-2.893 4.465-2.208 1.886-5.229 2.827-9.057 2.827-3.829 0-6.856-.941-9.076-2.827-1.511-1.277-2.508-2.869-2.993-4.776v6.911h-6.079v-9.513c0-2.19-.316-3.695-.953-4.514-.631-.819-1.729-1.226-3.294-1.226-1.766 0-3.155.497-4.168 1.487-1.013.989-1.523 2.348-1.523 4.077v9.689h-6.08V28.672H8.57v6.204c1.056-1.146 2.214-2.008 3.483-2.572 1.267-.564 2.657-.843 4.162-.843 1.681 0 3.137.26 4.363.782 1.225.522 2.178 1.292 2.857 2.312.412.631.71 1.365.886 2.214.111.537.188 1.265.23 2.183.468-1.967 1.471-3.602 3.011-4.901 2.208-1.875 5.242-2.809 9.094-2.809 3.84 0 6.861.934 9.07 2.809a8.964 8.964 0 0 1 2.879 4.444 8.945 8.945 0 0 1 2.891-4.444c2.209-1.875 5.242-2.809 9.094-2.809 3.841 0 6.861.934 9.07 2.809a8.973 8.973 0 0 1 2.936 4.65c.486-1.619 1.368-3.016 2.646-4.189 2.063-1.887 4.769-2.832 8.112-2.832 1.493 0 2.809.211 3.95.63a7.482 7.482 0 0 1 2.9 1.911v-5.549h6.079v22.883h-6.079v-1.814zM40.872 37.583c-1.049-1.025-2.451-1.535-4.216-1.535-1.766 0-3.173.516-4.235 1.553-1.062 1.037-1.59 2.42-1.59 4.149 0 1.735.528 3.112 1.59 4.144s2.469 1.547 4.235 1.547c1.753 0 3.155-.515 4.21-1.553 1.049-1.038 1.577-2.427 1.577-4.168 0-1.735-.522-3.112-1.571-4.137zm23.935 0c-1.05-1.025-2.451-1.535-4.217-1.535-1.765 0-3.173.516-4.235 1.553-1.061 1.037-1.59 2.42-1.59 4.149 0 1.735.528 3.112 1.59 4.144s2.47 1.547 4.235 1.547c1.754 0 3.155-.515 4.211-1.553 1.049-1.038 1.577-2.427 1.577-4.168 0-1.735-.521-3.112-1.571-4.137zm23.832.346c-1.043-1.013-2.433-1.517-4.174-1.517-1.771 0-3.173.504-4.21 1.511-1.038 1.007-1.553 2.366-1.553 4.083 0 1.712.522 3.064 1.565 4.071 1.044 1.007 2.439 1.511 4.199 1.511 1.741 0 3.131-.51 4.174-1.535 1.044-1.025 1.565-2.384 1.565-4.076-.001-1.689-.523-3.036-1.566-4.048zM73.674 65.477v-8.046h1.023l5.63 7.22v-7.22h.78v8.046h-1.072l-5.581-7.219v7.219h-.78zm15.239-.744l.003.668a2.618 2.618 0 0 1-.338.082c-.108.019-.21.028-.306.028-.262 0-.451-.07-.57-.21-.119-.139-.193-.382-.223-.726a2.977 2.977 0 0 1-1.083.799c-.399.165-.882.249-1.449.249-.715 0-1.266-.155-1.655-.463-.388-.308-.583-.745-.583-1.31 0-.262.052-.497.156-.707a1.53 1.53 0 0 1 .464-.55c.163-.119.384-.219.665-.297.279-.079.756-.166 1.432-.261l.609-.076c.962-.117 1.443-.396 1.443-.838a.815.815 0 0 0-.416-.739c-.279-.169-.685-.253-1.222-.253-.674 0-1.187.113-1.538.342-.349.228-.539.572-.568 1.028h-.769c.043-.693.297-1.211.76-1.556.462-.344 1.133-.516 2.015-.516.563 0 1.016.055 1.363.17.346.111.618.293.817.544.121.152.206.327.26.523.052.199.078.502.078.913v2.619c0 .26.024.425.071.492.048.066.13.101.251.101.054 0 .11-.004.165-.014.057-.011.113-.026.168-.042zm-1.434-2.455c-.141.08-.355.153-.639.221-.286.067-.75.149-1.397.247-.853.134-1.391.278-1.616.431-.225.154-.338.386-.338.693 0 .32.137.574.414.764.275.192.646.286 1.114.286.73 0 1.323-.171 1.778-.511.455-.34.684-.782.684-1.326v-.805zm3.745 1.628c0 .44.048.709.147.808.099.1.282.151.554.151.087 0 .182-.006.28-.019.1-.013.215-.035.345-.069v.671a5.203 5.203 0 0 1-.509.096 3.276 3.276 0 0 1-.45.034c-.412 0-.707-.117-.884-.351-.176-.234-.264-.64-.264-1.217v-3.793H89.44v-.646h1.003v-1.727h.78v1.727h1.337v.646h-1.337v3.689h.001zm2.26-5.561v-.914h.769v.914h-.769zm0 7.132v-5.906h.769v5.906h-.769zm2.888-2.957c0 .737.214 1.322.641 1.758.429.435 1.003.652 1.725.652.717 0 1.289-.219 1.718-.655.427-.437.641-1.022.641-1.755 0-.732-.214-1.315-.641-1.752-.429-.435-1.001-.652-1.718-.652-.723 0-1.296.217-1.725.652-.427.437-.641 1.02-.641 1.752zm-.791 0c0-.942.29-1.705.871-2.289.579-.581 1.343-.873 2.286-.873.94 0 1.701.291 2.284.876.585.583.877 1.347.877 2.285 0 .943-.292 1.709-.877 2.292-.583.585-1.345.876-2.284.876-.943 0-1.707-.291-2.286-.876-.581-.582-.871-1.347-.871-2.291zm7.578 2.957v-5.906h.747v1.09a2.8 2.8 0 0 1 1.057-.904 3.134 3.134 0 0 1 1.415-.309c.78 0 1.354.178 1.722.537.369.356.553.914.553 1.672v3.82h-.769v-3.319c0-.75-.123-1.274-.37-1.567-.247-.293-.67-.44-1.269-.44-.674 0-1.229.184-1.664.55-.437.366-.654.837-.654 1.416v3.361h-.768v-.001zm8.477 0l-2.067-5.906h.843l1.731 5.181 1.577-5.181h.997l1.67 5.181 1.649-5.181h.826l-2.03 5.906h-.914l-1.692-5.263-1.655 5.263h-.935zm8.251-7.132v-.914h.769v.914h-.769zm0 7.132v-5.906h.769v5.906h-.769zm7.568-2.976c0-.722-.214-1.298-.639-1.729-.425-.429-.994-.645-1.703-.645-.708 0-1.274.216-1.699.648-.425.431-.639 1.006-.639 1.725 0 .719.214 1.293.639 1.72.425.429.992.643 1.699.643.713 0 1.282-.214 1.707-.643.423-.425.635-.999.635-1.719zm.769-5.07v8.046h-.769v-1.048c-.29.398-.628.691-1.012.883-.385.191-.832.288-1.343.288-.929 0-1.679-.286-2.255-.856-.574-.572-.862-1.321-.862-2.246 0-.923.288-1.672.862-2.24.576-.57 1.326-.854 2.255-.854.5 0 .94.093 1.319.281.379.187.724.479 1.036.878v-3.132h.769zm2.149 4.613h4.558c-.043-.589-.273-1.061-.685-1.417-.414-.355-.94-.533-1.575-.533-.646 0-1.177.178-1.595.533-.419.357-.653.829-.703 1.417zm5.216 1.55a2.561 2.561 0 0 1-1.02 1.528c-.526.378-1.157.566-1.896.566-.947 0-1.71-.289-2.29-.871-.578-.58-.867-1.347-.867-2.298 0-.942.29-1.705.871-2.289.579-.581 1.343-.873 2.284-.873.947 0 1.707.286 2.281.86.574.574.86 1.338.86 2.293v.178h-5.46c.044.713.268 1.267.67 1.656.403.39.953.585 1.649.585.505 0 .936-.117 1.295-.351.356-.234.607-.563.754-.986h.869z"/></svg>